<?xml version="1.0" encoding="UTF-8"?>
<svg width="59px" height="61px" viewBox="0 0 59 61" version="1.1" xmlns="http://www.w3.org/2000/svg" xmlns:xlink="http://www.w3.org/1999/xlink">
    <!-- Generator: Sketch 52.6 (67491) - http://www.bohemiancoding.com/sketch -->
    <title>ic_homefilled</title>
    <desc>Created with Sketch.</desc>
    <g id="mobile-site" stroke="none" stroke-width="1" fill="none" fill-rule="evenodd">
        <g id="home---menu-expand" transform="translate(-80.000000, -345.000000)" fill="#ED1C24" fill-rule="nonzero">
            <path d="M122.18615,405.345002 L122.18615,388.052391 C122.18615,381.424974 116.813567,376.052391 110.18615,376.052391 L108.693041,376.052391 C102.065624,376.052391 96.6930408,381.424974 96.6930408,388.052391 L96.6930408,405.345002 L92.7128741,405.345002 C88.8468809,405.345002 85.7128741,402.210995 85.7128741,398.345002 L85.7128741,369.158952 C84.0314569,370.037515 81.9180098,369.557566 80.7945224,367.964784 C80.7918967,367.961062 80.7892777,367.957335 80.7866652,367.953603 C79.5796744,366.22946 79.9989091,363.853307 81.7230521,362.646316 C81.7360079,362.637246 81.7490201,362.628257 81.7620878,362.61935 L105.496861,346.440296 C107.875335,344.818985 111.003856,344.818985 113.38233,346.440296 L137.204135,362.678676 C138.931184,363.855937 139.408693,366.193292 138.281774,367.953603 C137.206073,369.63391 134.971886,370.124039 133.291579,369.048338 C133.252843,369.023539 133.214583,368.998003 133.176822,368.971744 L133.166317,368.964438 L133.166317,398.345002 C133.166317,402.210995 130.03231,405.345002 126.166317,405.345002 L122.18615,405.345002 Z M103.266443,387.467858 C103.266443,384.706434 105.50502,382.467858 108.266443,382.467858 L110.612747,382.467858 C113.374171,382.467858 115.612747,384.706434 115.612747,387.467858 L115.612747,405.345002 L103.266443,405.345002 L103.266443,387.467858 Z" id="ic_homefilled"></path>
        </g>
    </g>
</svg>